<svg width="175" height="20" viewBox="0 0 175 20" fill="none" xmlns="http://www.w3.org/2000/svg">
<path d="M111.88 18.7577C110.69 18.7577 109.748 18.7577 108.655 18.7577C108.655 12.7243 108.655 6.77726 108.655 0.851761C111.456 0.118353 111.937 0.301707 113.335 2.54507C114.596 4.56841 115.865 6.58313 117.291 8.85453C117.78 8.18584 118.18 7.69618 118.52 7.16338C119.707 5.30398 120.863 3.423 122.05 1.56575C122.647 0.633895 124.859 0.0989411 125.736 0.705081C125.978 0.873333 126.177 1.3069 126.175 1.61968C126.164 7.23241 126.122 12.8451 126.08 18.4579C126.08 18.5053 126.008 18.5528 125.865 18.7275C125.034 18.7275 124.097 18.7275 122.967 18.7275C122.967 14.8059 122.967 10.8887 122.967 6.9714C122.83 6.91316 122.691 6.85708 122.554 6.79884C120.88 9.28595 119.207 11.7709 117.329 14.5622C115.507 11.8162 113.815 9.26438 111.88 6.34585C111.88 10.7183 111.88 14.6377 111.88 18.7577Z" fill="#0779B8"/>
<path d="M0 16.0038C0.598874 15.2639 1.15979 14.5672 1.78608 13.7906C2.41026 14.207 2.88894 14.5629 3.40135 14.8605C4.89643 15.7255 6.4611 16.3187 8.22609 16.034C9.48288 15.8312 10.4655 14.9878 10.493 13.9977C10.5246 12.7962 9.67267 12.2397 8.74272 11.9118C7.03677 11.31 5.24648 10.9433 3.57849 10.2552C0.733832 9.07958 -0.354264 5.64335 1.3559 3.02681C1.98008 2.07123 3.0492 1.17388 4.10356 0.798552C7.35519 -0.361956 10.3517 0.472836 13.2385 2.62776C12.6565 3.50569 12.1356 4.29302 11.6823 4.97897C10.1619 4.41382 8.84605 3.82278 7.47539 3.45823C6.82801 3.28782 5.95922 3.35038 5.3962 3.67609C4.80154 4.01907 4.16893 4.76326 4.08247 5.40607C4.01288 5.92593 4.62019 6.70248 5.12628 7.09938C5.67033 7.52864 6.44001 7.66885 7.12112 7.8975C8.26405 8.28146 9.44282 8.56619 10.5583 9.01486C12.8252 9.92515 13.8817 11.42 13.8247 13.603C13.7657 15.9046 12.7029 17.5202 10.6363 18.5384C7.51756 20.0764 1.82193 18.6009 0 16.0038Z" fill="black"/>
<path d="M54.0966 3.29353C53.5146 4.00321 52.9157 4.73662 52.2219 5.58435C50.1891 4.12401 48.1268 2.81034 45.6638 3.69906C44.58 4.08949 43.4602 4.81859 42.737 5.71377C40.837 8.06715 41.0226 11.9348 42.9858 14.0768C44.232 15.4357 45.8115 16.3848 47.6418 15.9728C49.2381 15.6126 50.729 14.7649 52.5024 14.0358C52.9031 14.4672 53.5019 15.1143 54.0987 15.7571C52.378 18.57 48.576 19.8556 44.814 18.9129C41.0036 17.9574 38.2876 14.698 38.0366 10.7743C37.733 6.03518 39.789 2.47384 43.7491 0.877602C47.355 -0.569799 51.7222 0.403043 54.0966 3.29353Z" fill="black"/>
<path d="M82.3515 18.6649C81.9804 18.7577 81.8096 18.8289 81.6345 18.8375C79.0977 18.9648 79.0935 18.9648 78.0898 16.5488C76.7697 13.3715 75.4623 10.1898 74.1381 7.01455C73.8639 6.35664 73.5434 5.71814 73.0942 4.74745C71.6203 8.31527 70.2875 11.5401 68.9548 14.7649C68.6976 15.3905 68.4319 16.0117 68.1725 16.6351C67.1308 19.1395 67.0507 19.1805 64.147 18.6089C64.244 18.2012 64.284 17.7719 64.4422 17.3966C66.6711 12.1398 68.9527 6.90669 71.1247 1.62832C71.5865 0.504478 72.295 0.457021 73.2418 0.457021C74.1381 0.454863 74.8171 0.51742 75.2451 1.55066C77.4993 6.99729 79.8274 12.4137 82.1238 17.8431C82.2165 18.061 82.2524 18.3004 82.3515 18.6649Z" fill="black"/>
<path d="M137.066 4.75607C135.061 9.58793 133.18 14.1135 131.259 18.7383C130.223 18.7383 129.171 18.7383 127.88 18.7383C128.386 17.5023 128.804 16.441 129.251 15.3926C131.225 10.7592 133.234 6.14307 135.16 1.49025C135.562 0.515246 136.197 0.459163 137.02 0.482891C137.852 0.504461 138.658 0.314637 139.116 1.41475C141.454 7.02747 143.852 12.6122 146.222 18.2098C146.262 18.3068 146.211 18.4449 146.197 18.6757C145.946 18.7275 145.672 18.8353 145.395 18.8353C142.536 18.8267 143.169 19.1567 142.11 16.7041C140.725 13.4944 139.44 10.2372 138.101 7.0059C137.829 6.33936 137.505 5.70087 137.066 4.75607Z" fill="#0779B8"/>
<path d="M97.9965 18.7361C93.6884 18.7361 89.6755 18.7361 85.4771 18.7361C85.4771 12.72 85.4771 6.74056 85.4771 0.670532C86.5103 0.670532 87.4382 0.670532 88.579 0.670532C88.579 5.68575 88.579 10.5845 88.579 15.673C91.7104 15.673 94.6394 15.673 97.7898 15.673C97.8594 16.73 97.9185 17.6058 97.9965 18.7361Z" fill="black"/>
<path d="M57.7216 0.631714C58.7865 0.631714 59.6679 0.631714 60.7307 0.631714C60.7307 6.67801 60.7307 12.6531 60.7307 18.7231C60.1803 18.7684 59.7122 18.8353 59.2441 18.8396C58.7781 18.8439 58.3099 18.7835 57.7195 18.7447C57.7216 12.7157 57.7216 6.78155 57.7216 0.631714Z" fill="black"/>
<path d="M151.269 0.635986C152.338 0.635986 153.224 0.635986 154.291 0.635986C154.291 6.68013 154.291 12.6574 154.291 18.7404C153.255 18.7404 152.321 18.7404 151.269 18.7404C151.269 12.7307 151.269 6.79229 151.269 0.635986Z" fill="#0779B8"/>
<path d="M147.027 3.49207C147.253 3.5654 147.525 3.59776 147.858 3.59345C148.563 3.58266 149.267 3.57835 149.971 3.57403C149.256 3.57403 148.542 3.57619 147.827 3.57187C147.572 3.56972 147.312 3.53521 147.027 3.49207Z" fill="#0779B8"/>
<path d="M155.587 0.618771C152.999 0.616614 150.414 0.623086 147.826 0.599358C147.493 0.597201 147.213 0.625242 146.981 0.702898C147.194 0.66407 147.405 0.631717 147.616 0.631717C150.273 0.61446 152.93 0.633871 155.587 0.618771Z" fill="#0779B8"/>
<path d="M158.533 0.7007C158.308 0.62736 158.036 0.595004 157.702 0.599318C156.998 0.610103 156.292 0.614416 155.587 0.618731C152.93 0.63383 150.273 0.614417 147.616 0.629517C147.406 0.631674 147.195 0.661873 146.982 0.7007C146.514 0.85601 146.25 1.22055 146.242 2.01436C146.231 2.8815 146.482 3.31292 147.028 3.4898C147.313 3.5351 147.572 3.56961 147.827 3.56961C148.542 3.57392 149.257 3.57176 149.972 3.57176C152.559 3.57392 155.147 3.56745 157.734 3.59118C158.067 3.59333 158.348 3.56529 158.58 3.48764C159.048 3.33233 159.311 2.96779 159.32 2.17398C159.332 1.309 159.079 0.877581 158.533 0.7007Z" fill="#0779B8"/>
<path d="M173.518 7.82765C173.518 8.92776 173.518 9.76255 173.518 10.8583C170.665 10.8583 167.869 10.8583 164.956 10.8583C164.956 12.4977 164.956 13.8804 164.956 15.5241C167.287 15.5241 169.558 15.5241 171.829 15.5241C172.13 15.5241 172.432 15.5241 172.733 15.5241C175.161 15.522 175.291 15.7075 174.711 18.4944C170.426 18.4944 166.112 18.4944 161.481 18.4944C161.481 17.1937 161.481 15.9275 161.481 14.6613C161.483 12.8105 161.492 10.9576 161.483 9.10679C161.479 8.41006 161.648 7.83844 162.441 7.83412C166.099 7.81902 169.758 7.82765 173.518 7.82765Z" fill="#0779B8"/>
<path d="M174.605 0.592907C174.605 1.53555 174.605 2.25386 174.605 3.12101C174.137 3.19867 173.684 3.33456 173.23 3.33672C169.867 3.35613 166.506 3.3173 163.144 3.36907C162.008 3.38633 161.51 3.01963 161.525 1.79225C161.54 0.601534 162.115 0.366414 163.113 0.375042C166.415 0.407398 169.717 0.381511 173.02 0.396611C173.486 0.396611 173.952 0.506623 174.605 0.592907Z" fill="#0779B8"/>
<path d="M32.5265 3.25681C29.9645 0.487117 26.7107 -0.479256 23.0858 0.741652C17.7255 2.54713 15.2752 7.89022 17.3143 13.3714C17.7529 14.547 17.6981 15.4573 17.1646 16.5078C16.6437 17.5367 16.2473 18.6303 15.796 19.6959C15.9015 19.7973 16.0048 19.8987 16.1102 20.0001C17.1498 19.5385 18.2168 19.1308 19.2206 18.598C20.3213 18.0134 21.2934 18.0738 22.4849 18.4966C23.8112 18.9668 25.3211 19.202 26.7192 19.0984C30.4305 18.8223 33.0579 16.7256 34.3991 13.2355C35.8035 9.59 35.154 6.09769 32.5265 3.25681ZM25.7766 16.5768C22.1707 16.5768 19.248 13.5871 19.248 9.89846C19.248 6.20985 22.1707 3.22014 25.7766 3.22014C29.3825 3.22014 32.3051 6.20985 32.3051 9.89846C32.3051 13.5871 29.3803 16.5768 25.7766 16.5768Z" fill="#0779B8"/>
</svg>
